<mxfile host="app.diagrams.net" modified="2021-09-08T08:46:32.065Z" agent="5.0 (X11; Linux x86_64) AppleWebKit/537.36 (KHTML, like Gecko) Chrome/93.0.4577.63 Safari/537.36" etag="NTrVwaqhMvt_hNWTI8jR" version="15.0.6" type="github">
  <diagram id="yQ6FWxqo-vHbF73nfc79" name="Page-1">
    <mxGraphModel dx="1248" dy="640" grid="1" gridSize="10" guides="1" tooltips="1" connect="1" arrows="1" fold="1" page="1" pageScale="1" pageWidth="850" pageHeight="1100" math="0" shadow="0">
      <root>
        <mxCell id="0" />
        <mxCell id="1" parent="0" />
        <mxCell id="R22VH7pEPT0zb_ihm2wh-2" value="Login success" style="rounded=0;whiteSpace=wrap;html=1;" parent="1" vertex="1">
          <mxGeometry x="170" y="95" width="80" height="35" as="geometry" />
        </mxCell>
        <mxCell id="R22VH7pEPT0zb_ihm2wh-3" value="Tour Management" style="rounded=0;whiteSpace=wrap;html=1;" parent="1" vertex="1">
          <mxGeometry x="271" y="96" width="129" height="35" as="geometry" />
        </mxCell>
        <mxCell id="R22VH7pEPT0zb_ihm2wh-7" value="Bookings Management" style="rounded=0;whiteSpace=wrap;html=1;" parent="1" vertex="1">
          <mxGeometry x="425" y="96" width="129" height="35" as="geometry" />
        </mxCell>
        <mxCell id="R22VH7pEPT0zb_ihm2wh-12" value="Admin" style="shape=umlLifeline;participant=umlActor;perimeter=lifelinePerimeter;whiteSpace=wrap;html=1;container=1;collapsible=0;recursiveResize=0;verticalAlign=top;spacingTop=36;outlineConnect=0;" parent="1" vertex="1">
          <mxGeometry x="60" y="86.25" width="20" height="407.5" as="geometry" />
        </mxCell>
        <mxCell id="R22VH7pEPT0zb_ihm2wh-13" value="" style="endArrow=none;dashed=1;html=1;dashPattern=1 3;strokeWidth=2;exitX=0.5;exitY=1;exitDx=0;exitDy=0;" parent="1" source="R22VH7pEPT0zb_ihm2wh-2" edge="1">
          <mxGeometry width="50" height="50" relative="1" as="geometry">
            <mxPoint x="460" y="-60" as="sourcePoint" />
            <mxPoint x="210" y="460" as="targetPoint" />
          </mxGeometry>
        </mxCell>
        <mxCell id="R22VH7pEPT0zb_ihm2wh-14" value="" style="endArrow=none;dashed=1;html=1;dashPattern=1 3;strokeWidth=2;exitX=0.5;exitY=1;exitDx=0;exitDy=0;" parent="1" edge="1">
          <mxGeometry width="50" height="50" relative="1" as="geometry">
            <mxPoint x="337" y="135.0000000000001" as="sourcePoint" />
            <mxPoint x="337" y="465" as="targetPoint" />
          </mxGeometry>
        </mxCell>
        <mxCell id="R22VH7pEPT0zb_ihm2wh-15" value="" style="endArrow=none;dashed=1;html=1;dashPattern=1 3;strokeWidth=2;exitX=0.5;exitY=1;exitDx=0;exitDy=0;" parent="1" source="R22VH7pEPT0zb_ihm2wh-7" edge="1">
          <mxGeometry width="50" height="50" relative="1" as="geometry">
            <mxPoint x="515" y="138.0000000000001" as="sourcePoint" />
            <mxPoint x="490" y="468" as="targetPoint" />
          </mxGeometry>
        </mxCell>
        <mxCell id="R22VH7pEPT0zb_ihm2wh-18" value="" style="endArrow=classic;html=1;" parent="1" source="R22VH7pEPT0zb_ihm2wh-12" edge="1">
          <mxGeometry width="50" height="50" relative="1" as="geometry">
            <mxPoint x="460" y="210" as="sourcePoint" />
            <mxPoint x="210" y="160" as="targetPoint" />
          </mxGeometry>
        </mxCell>
        <mxCell id="R22VH7pEPT0zb_ihm2wh-20" value="Login to page" style="text;html=1;align=center;verticalAlign=middle;resizable=0;points=[];autosize=1;strokeColor=none;" parent="1" vertex="1">
          <mxGeometry x="90" y="170" width="90" height="20" as="geometry" />
        </mxCell>
        <mxCell id="R22VH7pEPT0zb_ihm2wh-25" value="" style="endArrow=classic;html=1;" parent="1" source="R22VH7pEPT0zb_ihm2wh-12" edge="1">
          <mxGeometry width="50" height="50" relative="1" as="geometry">
            <mxPoint x="69.07142857142867" y="160" as="sourcePoint" />
            <mxPoint x="210" y="160" as="targetPoint" />
            <Array as="points">
              <mxPoint x="140" y="159" />
            </Array>
          </mxGeometry>
        </mxCell>
        <mxCell id="R22VH7pEPT0zb_ihm2wh-35" value="" style="endArrow=classic;html=1;" parent="1" edge="1">
          <mxGeometry width="50" height="50" relative="1" as="geometry">
            <mxPoint x="340" y="150" as="sourcePoint" />
            <mxPoint x="340" y="180" as="targetPoint" />
            <Array as="points">
              <mxPoint x="380" y="150" />
              <mxPoint x="380" y="180" />
            </Array>
          </mxGeometry>
        </mxCell>
        <mxCell id="R22VH7pEPT0zb_ihm2wh-36" value="" style="endArrow=classic;html=1;" parent="1" edge="1">
          <mxGeometry width="50" height="50" relative="1" as="geometry">
            <mxPoint x="210" y="274.5" as="sourcePoint" />
            <mxPoint x="490" y="274.5" as="targetPoint" />
          </mxGeometry>
        </mxCell>
        <mxCell id="R22VH7pEPT0zb_ihm2wh-37" value="" style="endArrow=classic;html=1;" parent="1" edge="1">
          <mxGeometry width="50" height="50" relative="1" as="geometry">
            <mxPoint x="210" y="220" as="sourcePoint" />
            <mxPoint x="340" y="220" as="targetPoint" />
          </mxGeometry>
        </mxCell>
        <mxCell id="R22VH7pEPT0zb_ihm2wh-39" value="manage tour" style="text;html=1;align=center;verticalAlign=middle;resizable=0;points=[];autosize=1;strokeColor=none;" parent="1" vertex="1">
          <mxGeometry x="230" y="220" width="80" height="20" as="geometry" />
        </mxCell>
        <mxCell id="R22VH7pEPT0zb_ihm2wh-40" value="manage bookings" style="text;html=1;align=center;verticalAlign=middle;resizable=0;points=[];autosize=1;strokeColor=none;" parent="1" vertex="1">
          <mxGeometry x="290" y="280" width="110" height="20" as="geometry" />
        </mxCell>
        <mxCell id="R22VH7pEPT0zb_ihm2wh-43" value="" style="endArrow=classic;html=1;" parent="1" edge="1">
          <mxGeometry width="50" height="50" relative="1" as="geometry">
            <mxPoint x="490" y="145" as="sourcePoint" />
            <mxPoint x="490" y="175" as="targetPoint" />
            <Array as="points">
              <mxPoint x="530" y="145" />
              <mxPoint x="530" y="175" />
            </Array>
          </mxGeometry>
        </mxCell>
        <mxCell id="R22VH7pEPT0zb_ihm2wh-44" value="" style="endArrow=classic;html=1;" parent="1" edge="1">
          <mxGeometry width="50" height="50" relative="1" as="geometry">
            <mxPoint x="490" y="200" as="sourcePoint" />
            <mxPoint x="490" y="230" as="targetPoint" />
            <Array as="points">
              <mxPoint x="530" y="200" />
              <mxPoint x="530" y="230" />
            </Array>
          </mxGeometry>
        </mxCell>
        <mxCell id="R22VH7pEPT0zb_ihm2wh-45" value="" style="endArrow=classic;html=1;" parent="1" edge="1">
          <mxGeometry width="50" height="50" relative="1" as="geometry">
            <mxPoint x="490" y="260" as="sourcePoint" />
            <mxPoint x="490" y="290" as="targetPoint" />
            <Array as="points">
              <mxPoint x="530" y="260" />
              <mxPoint x="530" y="290" />
            </Array>
          </mxGeometry>
        </mxCell>
        <mxCell id="R22VH7pEPT0zb_ihm2wh-47" value="add/ edit&amp;nbsp;&lt;br&gt;tour" style="text;html=1;align=center;verticalAlign=middle;resizable=0;points=[];autosize=1;strokeColor=none;" parent="1" vertex="1">
          <mxGeometry x="380" y="160" width="60" height="30" as="geometry" />
        </mxCell>
        <mxCell id="R22VH7pEPT0zb_ihm2wh-48" value="add/edit&amp;nbsp;&lt;br&gt;bookings" style="text;html=1;align=center;verticalAlign=middle;resizable=0;points=[];autosize=1;strokeColor=none;" parent="1" vertex="1">
          <mxGeometry x="530" y="145" width="60" height="30" as="geometry" />
        </mxCell>
        <mxCell id="R22VH7pEPT0zb_ihm2wh-49" value="save/update&amp;nbsp;&lt;br&gt;bookings" style="text;html=1;align=center;verticalAlign=middle;resizable=0;points=[];autosize=1;strokeColor=none;" parent="1" vertex="1">
          <mxGeometry x="533" y="199" width="80" height="30" as="geometry" />
        </mxCell>
        <mxCell id="R22VH7pEPT0zb_ihm2wh-50" value="list/delete&amp;nbsp;&lt;br&gt;bookings" style="text;html=1;align=center;verticalAlign=middle;resizable=0;points=[];autosize=1;strokeColor=none;" parent="1" vertex="1">
          <mxGeometry x="528" y="260" width="70" height="30" as="geometry" />
        </mxCell>
        <mxCell id="R22VH7pEPT0zb_ihm2wh-66" value="list/delete&amp;nbsp;&lt;br&gt;tour" style="text;html=1;align=center;verticalAlign=middle;resizable=0;points=[];autosize=1;strokeColor=none;" parent="1" vertex="1">
          <mxGeometry x="380" y="390" width="70" height="30" as="geometry" />
        </mxCell>
        <mxCell id="R22VH7pEPT0zb_ihm2wh-67" value="" style="endArrow=classic;html=1;" parent="1" edge="1">
          <mxGeometry width="50" height="50" relative="1" as="geometry">
            <mxPoint x="341.9999999999998" y="395" as="sourcePoint" />
            <mxPoint x="341.9999999999998" y="425" as="targetPoint" />
            <Array as="points">
              <mxPoint x="382" y="395" />
              <mxPoint x="382" y="425" />
            </Array>
          </mxGeometry>
        </mxCell>
        <mxCell id="BwjTIzrBYxhleQEzx_KS-1" value="save/update&amp;nbsp;&lt;br&gt;tour" style="text;html=1;align=center;verticalAlign=middle;resizable=0;points=[];autosize=1;strokeColor=none;" vertex="1" parent="1">
          <mxGeometry x="375" y="210" width="80" height="30" as="geometry" />
        </mxCell>
        <mxCell id="BwjTIzrBYxhleQEzx_KS-2" value="" style="endArrow=classic;html=1;" edge="1" parent="1">
          <mxGeometry width="50" height="50" relative="1" as="geometry">
            <mxPoint x="339" y="207" as="sourcePoint" />
            <mxPoint x="339" y="237" as="targetPoint" />
            <Array as="points">
              <mxPoint x="379" y="207" />
              <mxPoint x="379" y="237" />
            </Array>
          </mxGeometry>
        </mxCell>
      </root>
    </mxGraphModel>
  </diagram>
</mxfile>
